<svg xmlns="http://www.w3.org/2000/svg" viewBox="0 0 24 24">
  <g fill="none" fill-rule="evenodd">
    <circle cx="12" cy="12" r="12" fill="#34495E"/>
    <path fill="#FFF" d="M17.31 7.603a.58.58 0 0 0-.6-.602l-.406.014a.55.55 0 0 0-.349.14l-3.183 2.66-5.78-.476a.525.525 0 0 0-.42.154L6 10.067l4.594 2.212-2.123 2.394-1.633.084c-.07 0-.14.028-.182.084l-.223.224 1.899.938.935 1.905.224-.224a.247.247 0 0 0 .083-.182l.07-1.653 2.416-2.142 2.22 4.607.572-.574a.528.528 0 0 0 .154-.42l-.475-5.797 2.653-3.192a.734.734 0 0 0 .112-.322l.013-.406z"/>
  </g>
</svg>
