<svg xmlns="http://www.w3.org/2000/svg" viewBox="0 0 49.655 49.654">
  <path fill="#673ab7" d="M24.827 0C11.138 0 0 11.137 0 24.826c0 13.688 11.137 24.828 24.826 24.828 13.688 0 24.827-11.14 24.827-24.828C49.653 11.137 38.516 0 24.827 0zm13.716 23.011l-7.188 5.201 2.769 8.46c.044.133.067.273.067.417 0 .739-.6 1.339-1.339 1.339-.293 0-.562-.094-.782-.252l-7.244-5.24-7.243 5.24c-.22.158-.49.252-.783.252-.74 0-1.339-.599-1.339-1.339 0-.146.024-.284.068-.417l2.769-8.46-7.187-5.2v-.001c-.336-.242-.554-.637-.554-1.083 0-.739.598-1.337 1.338-1.337h8.897l2.755-8.421c.168-.547.677-.945 1.28-.945s1.112.398 1.28.945l2.754 8.421h8.896c.739 0 1.338.598 1.338 1.337.001.446-.217.841-.552 1.083z"/>
</svg>
