<svg xmlns="http://www.w3.org/2000/svg" viewBox="0 0 326.234 326.234">
  <path fill="#795548" d="M162.162 119.717c-24.814 0-42.836 18.773-42.836 44.622 0 26.145 17.611 44.394 42.836 44.394s42.842-18.249 42.842-44.394c0-25.849-18.02-44.622-42.842-44.622z"/>
  <path fill="#795548" d="M163.121.007C73.029.007 0 73.043 0 163.124 0 253.2 73.029 326.228 163.121 326.228c90.07 0 163.113-73.027 163.113-163.104C326.234 73.043 253.191.007 163.121.007zm67.381 231.198c-12.547 0-22.42-9.4-24.857-22.722-.043.051-.086.094-.129.139-11.082 11.423-26.475 17.703-43.354 17.703-16.871 0-32.27-6.28-43.35-17.703-11.014-11.357-17.078-27.077-17.078-44.283 0-17.201 6.059-32.958 17.063-44.372 11.094-11.509 26.498-17.844 43.365-17.844 16.875 0 32.273 6.335 43.371 17.844.012.013.023.026.035.038 1.217-3.415 4.471-5.868 8.309-5.868 4.85 0 8.801 3.935 8.801 8.795v79.09c0 7.524 4.029 11.589 7.824 11.589 11.643 0 19.789-19.626 19.789-47.716 0-51.675-36.285-89.176-86.299-89.176-51.023 0-88.041 37.221-88.041 88.51 0 48.845 35.811 84.288 85.17 84.288 10.906 0 26.188-3.745 35.533-8.722 4.297-2.279 9.629-.649 11.91 3.639 2.275 4.285.646 9.619-3.65 11.897-11.732 6.251-30.164 10.784-43.793 10.784-28.6 0-54.727-10.261-73.539-28.894-18.844-18.663-29.225-44.592-29.225-72.992 0-29.573 10.629-56.555 29.945-75.973 19.35-19.431 46.229-30.131 75.69-30.131 28.996 0 55.461 10.795 74.471 30.376 18.973 19.525 29.416 46.656 29.416 76.394 0 39.677-14.678 65.31-37.377 65.31z"/>
</svg>
