<svg xmlns="http://www.w3.org/2000/svg" viewBox="0 0 146 22">
  <g fill="none" fill-rule="evenodd">
    <path d="M0-6h146v34H0z"/>
    <path fill="#FEFEFE" d="M140.777 5.218c-3.197.236-6.357.744-13.473 1.224l-10.286.647c.162.68.284 1.247.42 1.499.556 1.035 2.438 1.544 5.406 1.547.911.001 2.944-.012 6.05-.012L126.81 21.56h2.213l5.129-11.436c5.234 0 6.525.006 6.692 0 2.203-.067 5.066-.562 4.997-1.966-.101-2.045-2.174-3.182-5.063-2.94m-23.613-3.251l-1.487-.006s.495 1.972.977 3.844l4.333-.284-3.823-3.554zM93.209 21.446h2.168l.645-2.709h2.868c2.059 0 4.139-1.31 4.662-3.515.582-2.449-.918-3.573-2.979-3.573h-5.035l-2.33 9.797zm6.605-8.04c1.07 0 1.771.633 1.493 1.8-.26 1.096-1.272 1.775-2.342 1.775H96.44l.848-3.574h2.527zM94.04 11.65h-2.479l-3.641 3.585-1.923-3.586h-2.412l5.618 9.797h2.51l.037-.157-2.626-4.727 4.885-4.77.031-.143zm-8.728 5.643l-4.099 3.996-.035.157h2.509l1.752-1.738c.501-.496.596-1.206.24-1.8l-.367-.615zm-5.252 4.153l.42-1.77h-6.26l.56-2.364h5.131l.421-1.773h-5.129l.502-2.118h6.263l.42-1.772H74.05l-2.328 9.797zm31.614 0l.421-1.77h-6.261l.561-2.364h5.13l.42-1.773h-5.127l.502-2.118h6.262l.42-1.772h-8.338l-2.326 9.797z"/>
    <path fill="#93D9F8" d="M60.097 21.446h4.54c3.115 0 5.85-1.728 6.599-4.884.756-3.184-1.16-4.9-4.271-4.914h-4.542l-2.326 9.798zm6.356-8.04c1.935 0 3.021 1.111 2.535 3.156-.479 2.018-2.09 3.127-4.028 3.127h-2.276l1.49-6.282h2.279zm-30.177 8.04h2.202l1.286-1.959h4.787l.341 1.96h2.2l-1.749-9.798h-2.54l-6.527 9.797zm7.321-7.793l.767 4.336h-3.687l2.92-4.336zm-12.835 7.793h2.355l6.528-9.797h-2.372l-4.748 7.204-1.11-7.204H29.06c.548 3.271 1.092 6.537 1.702 9.797zm-2.21-5.063l-1.932 2.8-1.309-7.534h-2.34l1.747 9.797h2.356l1.424-2.057a2.1 2.1 0 0 0 .342-1.725l-.289-1.281zm-8.667 5.063l.421-1.77h-6.26l.56-2.364h5.13l.42-1.773h-5.129l.503-2.118h6.26l.423-1.772h-8.338l-2.327 9.797zM0 21.446h2.169l.61-2.567.228-.963.378-1.585.694-2.924h2.696c.992 0 1.586.504 1.356 1.47-.216.907-1.06 1.454-2.05 1.454H3.385c1.133 2.408 3.246 6.093 6.624 5.035l.575-1.749c-.375.143-.874.23-1.232.23-1.099 0-1.867-1.079-2.645-1.975 1.748-.243 3.31-1.41 3.697-3.04.571-2.405-1.367-3.183-3.444-3.183H2.327L0 21.446zm48.307 0h2.17l.61-2.567.229-.963.376-1.585.695-2.924h2.697c.99 0 1.584.504 1.354 1.47-.215.907-1.058 1.454-2.05 1.454h-2.696c1.132 2.408 3.247 6.093 6.625 5.035l.575-1.749c-.376.143-.876.23-1.232.23-1.101 0-1.867-1.079-2.646-1.975 1.746-.243 3.31-1.41 3.698-3.04.57-2.405-1.367-3.183-3.444-3.183h-4.633l-2.328 9.797z"/>
    <path fill="#FEFEFE" d="M114.015 21.446h2.168l.61-2.567.23-.963.377-1.585.694-2.924h2.697c.99 0 1.585.504 1.355 1.47-.216.907-1.06 1.454-2.05 1.454H117.4c1.13 2.408 3.245 6.093 6.622 5.035l.578-1.749c-.375.143-.877.23-1.234.23-1.1 0-1.866-1.079-2.645-1.975 1.747-.243 3.31-1.41 3.697-3.04.572-2.405-1.367-3.183-3.443-3.183h-4.633l-2.327 9.797z"/>
    <path fill="#93D9F8" d="M132.92 4.577l-3.075-4.26h-1.776l.614 4.636z"/>
    <path fill="#FEFEFE" d="M6.615.86h-.76l-.588 2.389h.637c1.028 0 1.825-.436 1.907-1.373C7.864 1.273 7.51.86 6.615.86M5.73 4.086h-.659l-.688 2.76h.793c1.218 0 2.03-.47 2.118-1.487.07-.792-.425-1.273-1.564-1.273m1.557-.435c.7.302 1.101.827 1.03 1.642-.139 1.586-1.496 2.411-3.339 2.411h-1.81L5.06 0h1.675c1.53 0 2.194.715 2.106 1.73-.084.96-.7 1.62-1.554 1.92m5.383.772c.109-.871-.11-1.43-.77-1.43-.57 0-1.15.526-1.487 1.43h2.256zm-2.517 1.184C10.075 6.499 10.443 7 11.27 7c.659 0 1.16-.245 1.814-.692l-.078.893c-.651.425-1.204.614-1.964.614-1.218 0-1.992-.726-1.867-2.155.181-2.065 1.548-3.395 2.833-3.395 1.128 0 1.73.771 1.619 2.056a4.917 4.917 0 0 1-.151.825h-3.262a6.174 6.174 0 0 0-.062.459zm6.175-2.424l-.734 3.026c-.018.079-.04.201-.048.29-.024.28.127.47.529.47.212 0 .37-.023.507-.056l-.07.804a4.142 4.142 0 0 1-.833.078c-.793 0-1.223-.324-1.16-1.039.012-.145.051-.335.085-.468l.763-3.105h-.76l.205-.804h.748l.435-1.775 1.007-.145-.47 1.92h1.14l-.07.804h-1.274zm5.423.045a1.867 1.867 0 0 0-.726-.123c-1.017 0-2.089 1.15-2.232 2.781-.06.691.161 1.093.642 1.093.469 0 1.057-.457 1.668-1.071l.648-2.68zm-2.613 4.589c-.87 0-1.43-.625-1.327-1.808.197-2.256 1.798-3.696 3.406-3.696.592 0 1.051.111 1.647.323l-.901 3.663-.123 1.406h-.85l.022-.882c-.57.525-1.204.994-1.874.994z"/>
  </g>
</svg>
